<?xml version="1.0" encoding="UTF-8" ?>
<svg version="1.1" width="192" height="224" xmlns="http://www.w3.org/2000/svg" shape-rendering="crispEdges">
<rect x="64" y="0" width="48" height="16" fill="#752438" />
<rect x="64" y="16" width="16" height="16" fill="#752438" />
<rect x="80" y="16" width="32" height="32" fill="#CF573C" />
<rect x="112" y="16" width="16" height="16" fill="#752438" />
<rect x="16" y="32" width="16" height="16" fill="#CF573C" />
<rect x="32" y="32" width="16" height="16" fill="#752438" />
<rect x="64" y="32" width="16" height="16" fill="#411D31" />
<rect x="112" y="32" width="16" height="16" fill="#CF573C" />
<rect x="128" y="32" width="16" height="16" fill="#752438" />
<rect x="0" y="48" width="16" height="16" fill="#CF573C" />
<rect x="16" y="48" width="16" height="16" fill="#FEFF9C" />
<rect x="32" y="48" width="16" height="16" fill="#411D31" />
<rect x="80" y="48" width="16" height="32" fill="#411D31" />
<rect x="96" y="48" width="16" height="16" fill="#CF573C" />
<rect x="112" y="48" width="16" height="48" fill="#E9B843" />
<rect x="128" y="48" width="16" height="48" fill="#CF573C" />
<rect x="144" y="48" width="16" height="48" fill="#411D31" />
<rect x="0" y="64" width="16" height="16" fill="#752438" />
<rect x="16" y="64" width="16" height="16" fill="#411D31" />
<rect x="96" y="64" width="16" height="80" fill="#E9B843" />
<rect x="48" y="80" width="16" height="16" fill="#752438" />
<rect x="80" y="80" width="16" height="16" fill="#752438" />
<rect x="32" y="96" width="16" height="16" fill="#752438" />
<rect x="48" y="96" width="16" height="32" fill="#CF573C" />
<rect x="64" y="96" width="16" height="16" fill="#411D31" />
<rect x="80" y="96" width="16" height="16" fill="#CF573C" />
<rect x="112" y="96" width="16" height="16" fill="#CF573C" />
<rect x="128" y="96" width="16" height="16" fill="#752438" />
<rect x="160" y="96" width="16" height="16" fill="#411D31" />
<rect x="32" y="112" width="16" height="16" fill="#411D31" />
<rect x="64" y="112" width="32" height="16" fill="#E9B843" />
<rect x="112" y="112" width="16" height="32" fill="#E9B843" />
<rect x="128" y="112" width="16" height="16" fill="#CF573C" />
<rect x="144" y="112" width="16" height="16" fill="#411D31" />
<rect x="160" y="112" width="16" height="64" fill="#CF573C" />
<rect x="176" y="112" width="16" height="64" fill="#411D31" />
<rect x="16" y="128" width="16" height="48" fill="#411D31" />
<rect x="32" y="128" width="16" height="48" fill="#CF573C" />
<rect x="48" y="128" width="32" height="32" fill="#E9B843" />
<rect x="80" y="128" width="16" height="80" fill="#FEFF9C" />
<rect x="128" y="128" width="16" height="48" fill="#E9B843" />
<rect x="144" y="128" width="16" height="16" fill="#CF573C" />
<rect x="96" y="144" width="32" height="64" fill="#FEFF9C" />
<rect x="144" y="144" width="16" height="32" fill="#E9B843" />
<rect x="48" y="160" width="16" height="16" fill="#E9B843" />
<rect x="64" y="160" width="16" height="32" fill="#FEFF9C" />
<rect x="32" y="176" width="16" height="16" fill="#411D31" />
<rect x="48" y="176" width="16" height="16" fill="#CF573C" />
<rect x="128" y="176" width="16" height="16" fill="#FEFF9C" />
<rect x="144" y="176" width="16" height="16" fill="#CF573C" />
<rect x="160" y="176" width="16" height="16" fill="#411D31" />
<rect x="48" y="192" width="16" height="16" fill="#752438" />
<rect x="64" y="192" width="16" height="16" fill="#CF573C" />
<rect x="128" y="192" width="16" height="16" fill="#CF573C" />
<rect x="144" y="192" width="16" height="16" fill="#752438" />
<rect x="80" y="208" width="48" height="16" fill="#752438" />
</svg>